# xmcd CD database file
#
# Track frame offsets:
#	187
#	14462
#	31097
#	43765
#	58142
#	72772
#	85690
#	100640
#	115882
#	127530
#	142867
#	157330
#	167017
#	206060
#	218520
#	231450
#	243595
#	274107
#	289132
#	303767
#	318185
#
# Disc length: 4446 seconds
#
# Revision: 0
# Processed by: cddbd v1.5.1PL2 Copyright (c) Steve Scherf et al.
# Submitted via: CDex 1.51
#
DISCID=1f115c15
DTITLE=Benny Goodman - Benny Goodman Best
DYEAR=1900
DGENRE=Jazz
TTITLE0=King Porter Stomp
TTITLE1=Sometimes I'm Happy
TTITLE2=After you've Gone
TTITLE3=When Buddha Smiles
TTITLE4=Stompin' at the Savoy
TTITLE5=Stardust
TTITLE6=Down South Camp Meeting
TTITLE7=St. Louis Blues
TTITLE8=Bugle Call Rag
TTITLE9=Moonglow
TTITLE10=Organ Grinder's Swing
TTITLE11=Alexander's Ragtime Band
TTITLE12=Sing,Sing,Sing
TTITLE13=Avalon
TTITLE14=Suger Foot Stomp
TTITLE15=I'm a Ding Dong Daddy
TTITLE16=Bei Mir Bist Du Schon
TTITLE17=Don't be That Way
TTITLE18=One o'Clock Jump
TTITLE19=And the Angels Sing
TTITLE20=Goodbye
EXTD=
EXTT0=
EXTT1=
EXTT2=
EXTT3=
EXTT4=
EXTT5=
EXTT6=
EXTT7=
EXTT8=
EXTT9=
EXTT10=
EXTT11=
EXTT12=
EXTT13=
EXTT14=
EXTT15=
EXTT16=
EXTT17=
EXTT18=
EXTT19=
EXTT20=
PLAYORDER=
